<?xml version="1.0" encoding="UTF-8"?>
<!DOCTYPE svg PUBLIC "-//W3C//DTD SVG 1.1//EN" "http://www.w3.org/Graphics/SVG/1.1/DTD/svg11.dtd">
<!-- Creator: CorelDRAW 2020 (64 Bit Versão de avaliação) -->
<svg xmlns="http://www.w3.org/2000/svg" xml:space="preserve" width="66.647mm" height="14.857mm" version="1.1" style="shape-rendering:geometricPrecision; text-rendering:geometricPrecision; image-rendering:optimizeQuality; fill-rule:evenodd; clip-rule:evenodd"
viewBox="0 0 6664.7 1485.7"
 xmlns:xlink="http://www.w3.org/1999/xlink"
 xmlns:xodm="http://www.corel.com/coreldraw/odm/2003">
 <defs>
  <style type="text/css">
   <![CDATA[
    .fil7 {fill:white}
    .fil3 {fill:#9A2DD1;fill-rule:nonzero}
    .fil6 {fill:#E44AFF;fill-rule:nonzero}
    .fil4 {fill:url(#id0)}
    .fil1 {fill:url(#id1)}
    .fil2 {fill:url(#id2)}
    .fil0 {fill:url(#id3)}
    .fil5 {fill:url(#id4)}
   ]]>
  </style>
  <linearGradient id="id0" gradientUnits="userSpaceOnUse" x1="565.4" y1="1035.85" x2="565.4" y2="1604.15">
   <stop offset="0" style="stop-opacity:1; stop-color:#002DFF"/>
   <stop offset="1" style="stop-opacity:1; stop-color:#F715FF"/>
  </linearGradient>
  <linearGradient id="id1" gradientUnits="userSpaceOnUse" xlink:href="#id0" x1="564.25" y1="452.88" x2="564.25" y2="-143.24">
  </linearGradient>
  <linearGradient id="id2" gradientUnits="userSpaceOnUse" x1="-3.53" y1="373.11" x2="565.09" y2="373.11">
   <stop offset="0" style="stop-opacity:1; stop-color:#15DB71"/>
   <stop offset="0.0705882" style="stop-opacity:1; stop-color:#15DB71"/>
   <stop offset="1" style="stop-opacity:1; stop-color:#004FD4"/>
  </linearGradient>
  <linearGradient id="id3" gradientUnits="userSpaceOnUse" x1="468.33" y1="55.78" x2="1254.98" y2="868.06">
   <stop offset="0" style="stop-opacity:1; stop-color:#E33FFF"/>
   <stop offset="1" style="stop-opacity:1; stop-color:#E55E00"/>
  </linearGradient>
  <linearGradient id="id4" gradientUnits="userSpaceOnUse" x1="82.9" y1="950.57" x2="574.83" y2="1235.75">
   <stop offset="0" style="stop-opacity:1; stop-color:#15DB71"/>
   <stop offset="0.0705882" style="stop-opacity:1; stop-color:#15DB71"/>
   <stop offset="1" style="stop-opacity:1; stop-color:#00B1D4"/>
  </linearGradient>
 </defs>
 <g id="Camada_x0020_1">
  <metadata id="CorelCorpID_0Corel-Layer"/>
  <g id="_2629191707328">
   <path class="fil0" d="M571.67 474.5c-2.47,2.48 -5.18,4.56 -7.69,6.99l0 0 263.35 263.36c159.91,159.91 419.21,159.91 579.12,0l-553.5 -553.52 -281.28 283.17z"/>
   <path class="fil1" d="M393.94 72.8l-119.5 119.51 290.43 290.45c2.5,-2.43 5.22,-4.5 7.69,-7.01l0 0 281.51 -283.67 -119.28 -119.28c-47.06,-47.05 -108.75,-70.58 -170.44,-70.58l0 0c-61.66,0 -123.35,23.53 -170.41,70.58l0 0z"/>
   <path class="fil2" d="M-3.53 465.32c151.86,164.18 408.06,170.81 568.62,17.1l0 0 -290.69 -290.71 -277.93 273.61z"/>
   <path class="fil3" d="M854.11 1298.79l-281.28 -283.15c-2.47,-2.49 -5.18,-4.59 -7.7,-6.99l263.36 -263.36c159.91,-159.91 419.21,-159.91 579.12,0l-553.5 553.5z"/>
   <path class="fil4" d="M275.57 1297.81l119.53 119.53c94.11,94.11 246.71,94.11 340.84,0l0 0 119.28 -119.28 -281.53 -283.69c-2.46,-2.49 -5.18,-4.58 -7.69,-6.98l0 0 -290.43 290.42z"/>
   <path class="fil5" d="M-2.38 1024.8l277.91 273.61 290.72 -290.71c-77.3,-73.98 -176.73,-110.84 -276.04,-110.81l0 0c-106.99,0 -213.82,42.76 -292.59,127.91l0 0z"/>
   <path class="fil6" d="M1407.37 745.14l-6.01 -6c-160.73,-153.42 -415.22,-152.42 -573.15,5.54l-0.31 0.31c160.31,159.42 419.49,160.13 579.47,0.15z"/>
   <path class="fil7" d="M4257.76 1013.88l0 -203.78c66.76,0 133.51,0.02 200.27,0 71.31,-0.02 98.13,30.67 98.4,101.9 0.32,80.16 -34.05,88.81 -99.07,101.22 -33.55,6.41 -156.69,0.66 -199.6,0.66zm0 -495.41c29.24,0 173.33,-1.73 194.98,0.02 18.45,1.5 41.65,13.83 50.97,14.04l-2.07 3.08 16.12 7.46 0 10.54 7.03 0c0.01,0.65 7,23.62 8.51,30.14 2.92,12.58 1.92,23.49 2.06,38.41 0.28,30.08 -6.36,44.77 -21.1,59.71 -10.97,11.12 -34.3,22.8 -56.2,22.85 -25.54,0.07 -41.31,7.01 -73.81,7 -26.35,-0.01 -52.7,0 -79.06,0 -46.88,0 -47.53,10.86 -47.43,-33.38 0.11,-53.28 0,-106.58 0,-159.87zm386.49 544.61c0.17,-7.64 26.82,-43.44 30.64,-55.45 9.78,-30.74 11.13,-127.5 0.32,-158.22 -11.75,-33.37 -30.65,-42.9 -30.96,-56.88l-71.79 -38.77 8.55 -10.42c13.06,-0.29 55.92,-32.61 56.21,-45.68l7.03 0c0.06,-2.73 13.13,-41.98 15.57,-51.19 4.63,-17.52 1.97,-44.14 2,-64.75 0.07,-60.56 -20,-107.48 -68.02,-132.26 -10.69,-5.51 -9.43,-9.82 -19.82,-13.55 -12.01,-4.32 -12.69,-3.11 -24.48,-8.91 -14.28,-7.03 -111.09,-17.34 -112.55,-20.96l-302.17 0c-0.42,18.98 -3.51,49.22 -3.51,75.54l0 563.93c0,94.28 -12.6,73.78 86.08,73.78 48.74,0 286.75,3.73 314.97,-6.52 24.13,-8.78 54.86,-10.22 87.05,-34.17 10.2,-7.59 9.45,-15.52 24.88,-15.52z"/>
   <path class="fil7" d="M5146.68 999.83c-10.11,0.23 -8.78,5.74 -17.5,10.61 -7.39,4.12 -11.85,3.21 -19.72,8.38 -13.31,8.74 -26.72,8.15 -47.15,9.07 -32.07,1.44 -70.13,6.53 -103.37,-1.93 -28.23,-7.19 -58.22,-19.31 -58.36,-54.08 -0.3,-73.79 32.96,-57.8 38.81,-73.94l231.89 0c0,15.12 6.18,40.33 3.54,63.27 -1.71,14.76 -27.92,28.77 -28.14,38.62zm-323.24 -414.6l-5.7 0 0 98.38c21.8,0 25.83,0.58 43.61,-4.25 14.81,-4.03 29.1,-0.47 43.66,-3.78 30.17,-6.86 146.82,-0.96 181.9,1.05 17.54,1.01 62.93,15.49 63.29,31.58l10.54 0c0,18.57 13.11,9.7 14.18,47.31 0.61,22 -3.64,44.2 -3.64,58.09l-7.03 0c-2.89,-7.17 -160.74,-16.09 -177.03,-11.93 -24.17,6.17 -26.19,-5.98 -87.15,9.51 -3.44,0.87 -14.04,2.28 -19.05,3.78 -5.48,1.64 -11.09,5.96 -16.86,7.74 -14.02,4.31 -6.15,-2.31 -17.12,7.48 -4.3,3.83 -9.25,7.86 -16.57,8.02l-16.13 14.49 2.07 3.07c-11.35,0.26 -8.54,5.11 -12.2,12.4 -4.42,8.8 -4.76,2.74 -9.38,15.22 -5.76,15.57 -9.78,14.77 -13.55,37.38 -5.23,31.32 -12.64,54.04 -3.19,91.03 14.79,57.82 43.35,89.42 97.14,106.64 54.1,17.32 81.27,15.01 136.31,15.03 14.94,0.01 31.22,-5.58 43.98,-6.96 43.9,-4.76 77.48,-19.69 105.35,-47.49 8.06,-8.04 11.36,-26.53 20.95,-30 8.64,23.86 -2.52,70.96 20.88,79.25 18.67,6.62 78.5,-1.95 95.07,-1.95 0,-13.99 3.51,-39.67 3.51,-61.49l0.14 -325.14c-0.19,-16.28 -6.72,-68.58 -14.79,-81.84 -4.43,-7.3 -9.94,-9.93 -9.94,-23.43l-21.08 -21.08c-12.12,-0.27 -28.2,-18.59 -40.75,-22.5 -14.66,-4.56 -33.03,-10.65 -47.53,-15.71 -9.77,-3.4 -100.26,-14.63 -113.62,-14.62 -35.68,0.01 -224.44,10.29 -230.27,24.72z"/>
   <path class="fil7" d="M3614.78 806.59c0,-20.4 -5.31,-74.87 2.65,-88.7 31.17,-54.2 77.47,-41.31 143.16,-41.31 15.15,0 30.83,-0.44 45.88,-0.2 21.24,0.33 10.45,10.74 36.69,10.74l0 7.03c21.36,0.48 28.13,44.02 28.11,70.27 -0.04,53.27 -3.26,38.65 -61.49,38.65 -66.88,0 -133.47,3.52 -195,3.52zm-94.87 -168.65l-7.02 0c-0.16,7.29 -28.51,45.52 -28.13,98.36 0.35,49.2 -3.25,220.48 2.75,253.78 8.04,44.59 17.27,59.27 42.94,85.3 70.74,71.75 220.76,57.28 321.61,54.57 3.28,-0.09 54.7,-3.71 58.69,-4.56 14.98,-3.16 35.11,-9.61 55.38,-9.61l0 -3.52c14.61,-5.89 3.82,-84.78 3.52,-98.38 -20.31,-0.45 -57.02,-0.74 -80.82,5.27 -27.43,6.93 -151.75,7.76 -179.96,2.54 -12.46,-2.3 -32.17,-3.61 -40.32,-7.11 -7.72,-3.32 -27.45,-14.63 -32.69,-14.75l-10.54 -10.54c-0.27,-12.32 -6.68,-6.54 -9.91,-18.2 -8.85,-31.94 -1.18,-55.31 -0.63,-80.18l52.7 0c3.66,9.06 271.11,2.06 296.88,-0.02 36.34,-2.93 29.89,-8.52 29.88,-45.66 0,-25.18 0,-50.35 0,-75.54 0.01,-33.9 -4.43,-43.1 -6.91,-68.62 -1.6,-16.46 -6.21,-10.49 -10.63,-28.03 -1.88,-7.52 -23.55,-39.42 -29.88,-45.66 -13.93,-13.74 -50.97,-38.09 -69.92,-44.27 -27.97,-9.13 -94.97,-22.86 -130.28,-22.56 -35.47,0.31 -107.08,8.78 -133.55,17.7 -24.51,8.26 -31.79,10.64 -53.36,22.18 -9.94,5.31 -39.53,25.65 -39.8,37.51z"/>
   <path class="fil7" d="M6130.48 363.88l-0.01 723.8c-0.09,25.14 -3.14,32.17 18.75,37.47 9.28,2.24 73.85,2.22 82.59,0.61 5.29,-0.98 15.81,-6.34 21.64,-6.47l2.41 -229.85 12.79 -15.13c23.64,-0.97 43.96,-4.86 62.19,-4.79 32.83,0.14 20.99,28.03 38.56,28.42l24.59 45.67 7.03 0 49.19 77.3 5.51 1.07 57.74 76.23c0,42.65 126.96,33.05 147.73,18.5l-186.39 -271.48 -7.02 0 -8.19 -16.89 -5.87 -0.67c-0.31,-13.96 -9.68,-13.06 6.06,-29.08 6.06,-6.16 18.31,-13.58 18.54,-23.63l66.76 -77.3 5.13 -1.89c16.56,-16.56 23.78,-27.33 38.54,-46.07l3.73 -2.73c13.57,-16.11 16.77,-20.94 31.78,-35.25l19.19 -30 7.03 0 0 -7.03c-14.07,-5.09 -115.76,-9.21 -129.82,-1.58 -7.55,4.1 -63.27,65 -63.42,71.85l-2.92 -2.25 -28.7 40.9 -56.22 52.7 -10.52 21.26 -91.37 10.36 -4.4 -10.16 -9.68 -3.83 0.02 -390.06c-25.91,-9.38 -27.1,-7.03 -61.48,-7.03 -34.39,0 -35.58,-2.35 -61.49,7.03z"/>
   <path class="fil7" d="M5596.42 606.31c-13.33,17.12 -13.78,19.21 -27.15,36.85l-0.96 1.8c-4.06,-11.21 -10.33,-19.82 -10.58,-36.85 -0.75,-49.71 -11.55,-36.93 -105.37,-36.93l0 3.51c-12.46,5.03 -7.02,235.93 -7.02,270.54 0,46.27 0,92.53 0,138.79 0,45.68 2.64,96.01 3.51,135.27 10.85,0.24 9.1,6.86 26.2,7.18l66.92 -0.14c10.79,-0.78 18.42,-6.86 26.34,-7.04 0.93,-41.63 3.51,-94.31 3.51,-142.3l0.12 -219.47c2.52,-23.87 13.99,-33.9 25.13,-48.67 7.1,-9.42 9.42,-11.65 18.69,-18.19 9.08,-6.4 2.86,-1.11 12.88,-4.69 6.62,-2.38 4.14,-3.63 12.14,-7.19 12.76,-5.69 48.54,-5.71 68.07,-5.71 56.5,0 90.37,-2.65 119.5,26.32 29.34,29.17 24.56,66.56 24.56,123.01 0,97.79 0,195.58 0,293.38 28.38,10.27 18.92,10.54 59.73,10.54 11.3,0 24.13,0.58 35.22,0.09 12.66,-0.57 19.44,-6.93 28.02,-7.12 0.84,-37.48 3.51,-86.05 3.51,-130l0.02 -267.05c0.15,-19.66 -3.36,-43.55 -9.47,-57.28 -5.18,-11.61 -2.73,-14.86 -9.81,-23.57 -8.44,-10.41 -2.75,-17.21 -15.87,-17.51l-10.54 -10.54c-0.34,-15.34 -53.77,-33.57 -69.07,-39.85 -7.31,-2.99 -83.73,-12.96 -96.07,-12.96 -34.21,0 -104.01,8.46 -138.29,25.19 -8.29,4.05 -29.66,20.5 -33.87,20.59z"/>
   <path class="fil7" d="M2841.8 1084.16c14.31,0.31 27.28,20.02 39.31,23.93 15.03,4.87 32.21,13.57 46.25,16.99 51.96,12.66 175.62,13.17 225.4,-12.8 13.31,-6.95 10.11,0.66 21.15,-10.48 7.03,-7.09 10.76,-7.39 17.62,-14 7.12,-6.87 24.56,-38.11 26.22,-38.78l15.4 77.68c11.56,-2.04 94.75,10.46 100.55,-3.9l3.54 -541.08 -3.54 0c-4.04,-10.01 -77.89,-8.31 -96.69,-7.09 -33.22,2.13 -22.78,44.66 -22.78,80.87 0,69.69 0,139.38 0,209.06 0,31.65 4.82,75.86 -6.95,96.69 -33.1,58.59 -74.57,63.17 -144.13,63.17 -16.42,0 -37.19,1.57 -50.7,-2 -5.7,-1.51 -40.45,-12.04 -40.65,-12.05l-24.59 -21.08c0,-13.73 -14.47,-22.99 -14.14,-54.38l0.08 -205.62c0,-153.88 18.56,-154.64 -50.94,-154.6 -85.75,0.05 -75.55,-3.13 -75.55,63.25l-0.03 342.6c-0.2,21.6 4.38,42.27 11.74,56.78 4.86,9.59 5.67,15.19 11.38,23.75 6.95,10.42 12.05,9.44 12.05,23.09z"/>
   <path class="fil7" d="M1752.6 511.45l221.36 0c5.32,14.71 7.39,6.47 7.1,29.78l-0.08 268.87c0,101.89 0,203.78 0,305.68 25.63,9.27 27.51,10.55 63.24,10.54 25.9,-0.01 24.64,1.87 50.6,-3.87 10.91,-2.41 5.25,-3.99 12.65,-6.67l1.89 -591.9 8.65 -12.43 217.84 0c7.72,-21.34 7.05,-13.2 7.03,-43.92 -0.01,-15 2.8,-37.08 -2.1,-48.85 -6.91,-16.6 -16.64,-12.69 -38.31,-12.64l-463.79 0c-27.07,0 -80.94,-7.87 -90.51,11.39 -4.2,8.46 -2.59,33.56 -2.59,48.34 -0.02,31.18 -0.92,23.73 7.02,45.68z"/>
   <path class="fil7" d="M2518.55 644.96l-14.05 -10.54 0 -21.08c-7.83,-3.16 -0.73,-23.91 -4.73,-33.92 -4.46,-11.13 -17.72,-8.33 -32.15,-8.26 -27.97,0.16 -58.65,3.54 -78.86,3.53l-0.12 544.6c14.29,0 16.79,6.1 29.77,7.04l68.61 0.08c12.66,-0.57 19.44,-6.93 28.02,-7.12l0 -347.84c0.14,-0.05 23.89,-42.28 28.13,-47.42 25.74,-31.25 31.51,-23.85 43.99,-33.3 23.93,-18.11 128.64,-13.66 131.66,-21.17l3.67 -101.89 -3.67 -0.01c-4.52,-11.21 -44.47,-1.28 -58.12,-0.15 -42.46,3.51 -76.42,14.04 -109.16,36.65 -7.32,5.06 -32.78,31.54 -32.99,40.8z"/>
  </g>
 </g>
</svg>
