<?xml version="1.0" encoding="UTF-8"?>
<!DOCTYPE svg PUBLIC "-//W3C//DTD SVG 1.1//EN" "http://www.w3.org/Graphics/SVG/1.1/DTD/svg11.dtd">
<!-- Creator: CorelDRAW 2020 (64 Bit Versão de avaliação) -->
<svg xmlns="http://www.w3.org/2000/svg" xml:space="preserve" width="5.4186mm" height="5.4186mm" version="1.1" style="shape-rendering:geometricPrecision; text-rendering:geometricPrecision; image-rendering:optimizeQuality; fill-rule:evenodd; clip-rule:evenodd"
viewBox="0 0 541.86 541.86"
 xmlns:xlink="http://www.w3.org/1999/xlink"
 xmlns:xodm="http://www.corel.com/coreldraw/odm/2003">
 <defs>
  <style type="text/css">
   <![CDATA[
    .fil3 {fill:#9A2DD1;fill-rule:nonzero}
    .fil6 {fill:#E44AFF;fill-rule:nonzero}
    .fil2 {fill:url(#id0)}
    .fil1 {fill:url(#id1)}
    .fil4 {fill:url(#id2)}
    .fil0 {fill:url(#id3)}
    .fil5 {fill:url(#id4)}
   ]]>
  </style>
  <linearGradient id="id0" gradientUnits="userSpaceOnUse" x1="16.87" y1="136.99" x2="221.62" y2="136.99">
   <stop offset="0" style="stop-opacity:1; stop-color:#15DB71"/>
   <stop offset="0.0705882" style="stop-opacity:1; stop-color:#15DB71"/>
   <stop offset="1" style="stop-opacity:1; stop-color:#004FD4"/>
  </linearGradient>
  <linearGradient id="id1" gradientUnits="userSpaceOnUse" x1="221.31" y1="165.71" x2="221.31" y2="-48.94">
   <stop offset="0" style="stop-opacity:1; stop-color:#002DFF"/>
   <stop offset="1" style="stop-opacity:1; stop-color:#F715FF"/>
  </linearGradient>
  <linearGradient id="id2" gradientUnits="userSpaceOnUse" xlink:href="#id1" x1="221.73" y1="375.63" x2="221.73" y2="580.27">
  </linearGradient>
  <linearGradient id="id3" gradientUnits="userSpaceOnUse" x1="186.77" y1="22.73" x2="470.03" y2="315.2">
   <stop offset="0" style="stop-opacity:1; stop-color:#E33FFF"/>
   <stop offset="1" style="stop-opacity:1; stop-color:#E55E00"/>
  </linearGradient>
  <linearGradient id="id4" gradientUnits="userSpaceOnUse" x1="48" y1="344.93" x2="225.13" y2="447.61">
   <stop offset="0" style="stop-opacity:1; stop-color:#15DB71"/>
   <stop offset="0.0705882" style="stop-opacity:1; stop-color:#15DB71"/>
   <stop offset="1" style="stop-opacity:1; stop-color:#00B1D4"/>
  </linearGradient>
 </defs>
 <g id="Camada_x0020_1">
  <metadata id="CorelCorpID_0Corel-Layer"/>
  <g id="_2630843143520">
   <path class="fil0" d="M223.99 173.5c-0.89,0.89 -1.87,1.64 -2.77,2.51l0 0 94.83 94.83c57.58,57.59 150.94,57.59 208.52,0l-199.3 -199.31 -101.28 101.97z"/>
   <path class="fil1" d="M159.99 28.85l-43.03 43.04 104.58 104.58c0.9,-0.87 1.88,-1.62 2.77,-2.52l0 0 101.36 -102.14 -42.95 -42.96c-16.94,-16.94 -39.15,-25.41 -61.37,-25.41l0 0c-22.2,0 -44.41,8.47 -61.36,25.41l0 0z"/>
   <path class="fil2" d="M16.87 170.19c54.68,59.12 146.93,61.51 204.75,6.16l0 0 -104.68 -104.68 -100.07 98.52z"/>
   <path class="fil3" d="M325.69 470.31l-101.29 -101.96c-0.89,-0.9 -1.86,-1.65 -2.77,-2.51l94.83 -94.83c57.58,-57.58 150.95,-57.58 208.53,0l-199.3 199.3z"/>
   <path class="fil4" d="M117.37 469.96l43.04 43.04c33.88,33.88 88.83,33.88 122.73,0l0 0 42.95 -42.96 -101.38 -102.15c-0.88,-0.89 -1.86,-1.65 -2.76,-2.51l0 0 -104.58 104.58z"/>
   <path class="fil5" d="M17.28 371.65l100.07 98.52 104.68 -104.68c-27.83,-26.64 -63.63,-39.91 -99.39,-39.9l0 0c-38.53,0 -76.99,15.4 -105.36,46.06l0 0z"/>
   <path class="fil6" d="M524.9 270.95l-2.16 -2.16c-57.87,-55.24 -149.51,-54.88 -206.38,1.99l-0.11 0.11c57.72,57.41 151.05,57.67 208.65,0.06z"/>
  </g>
 </g>
</svg>
